<svg version="1.1" id="Layer_1" xmlns="http://www.w3.org/2000/svg" xmlns:xlink="http://www.w3.org/1999/xlink" x="0px" y="0px"
	 width="100%" viewBox="0 0 1154 1058" enable-background="new 0 0 1154 1058" xml:space="preserve">
<path fill="#000000" opacity="1.000000" stroke="none" 
	d="
M812.000000,1059.000000 
	C541.363770,1059.000000 271.227570,1059.000000 1.045677,1059.000000 
	C1.045677,706.403564 1.045677,353.807068 1.045677,1.105302 
	C385.553070,1.105302 770.106201,1.105302 1154.829590,1.105302 
	C1154.829590,353.666595 1154.829590,706.333313 1154.829590,1059.000000 
	C1040.806641,1059.000000 926.653320,1059.000000 812.000000,1059.000000 
M523.152588,759.207153 
	C522.110168,759.104919 521.067688,759.002686 519.770691,758.172241 
	C518.497131,758.194885 517.223511,758.217529 515.307068,758.096802 
	C514.868347,758.078308 514.429565,758.059814 513.545898,757.452637 
	C511.682281,757.037537 509.818665,756.622437 507.124298,756.163391 
	C492.079712,752.913696 477.645142,748.006714 463.277191,742.352356 
	C435.128204,731.274536 410.600311,714.930786 388.812927,694.347229 
	C370.341614,676.896545 355.148895,656.766541 342.741302,634.549805 
	C324.143341,601.248840 314.602966,565.279297 312.118164,527.474976 
	C310.990387,510.316772 311.985474,493.132904 314.669678,475.971954 
	C317.884552,455.418121 323.942169,435.848145 331.628265,416.670135 
	C341.888397,391.069397 357.742493,369.041504 375.836853,348.547760 
	C394.412079,327.509430 416.920715,311.347046 441.435150,298.080231 
	C472.709229,281.155151 506.146484,270.674988 541.688477,268.011810 
	C566.987976,266.116058 592.259033,267.098053 617.025146,273.348450 
	C638.002869,278.642792 658.016479,286.528931 677.107300,296.746124 
	C679.094971,297.809906 681.338562,298.395538 683.040710,299.042389 
	C684.388672,288.989319 685.535217,279.508453 686.989197,270.074982 
	C687.532532,266.550354 689.100464,263.181763 689.622070,259.656372 
	C689.990723,257.164948 691.651428,253.899734 687.896484,252.297272 
	C679.039368,248.517487 670.308105,244.361649 661.238647,241.175781 
	C634.429321,231.758301 606.886902,225.123489 578.419373,224.312592 
	C560.745239,223.809143 542.973633,224.920746 525.313232,226.222336 
	C505.696930,227.668076 486.747650,232.603073 468.000793,238.643280 
	C427.736237,251.616531 392.437561,272.808319 361.512939,301.462524 
	C341.294098,320.196869 323.790253,341.140991 309.785431,365.000885 
	C295.921051,388.621399 285.541016,413.734619 278.243866,439.993195 
	C272.243683,461.584808 269.942688,483.836914 269.964386,506.333435 
	C269.983215,525.840454 269.654877,545.358093 273.165253,564.628052 
	C277.463837,588.225037 283.199341,611.476807 293.258545,633.373474 
	C298.933899,645.727295 304.322266,658.406006 311.680145,669.744202 
	C320.547577,683.408386 330.951904,696.153809 341.439240,708.669922 
	C357.152618,727.422913 374.989899,743.885742 395.747284,757.173279 
	C415.251282,769.658447 435.435577,780.760742 457.299683,788.341492 
	C471.510406,793.268555 486.020447,797.803223 500.759033,800.608154 
	C516.343933,803.574219 532.324463,804.959229 548.196716,805.764954 
	C561.560791,806.443420 575.071594,805.930542 588.417419,804.782166 
	C601.093506,803.691345 613.832153,801.907471 626.203613,798.988708 
	C653.020081,792.662048 678.750366,783.312988 703.111450,770.083069 
	C720.501953,760.638794 736.595642,749.444336 750.994934,736.133484 
	C763.577698,724.501831 774.899658,711.479065 786.481689,698.799683 
	C797.392456,686.855225 805.839417,673.098022 813.440430,658.926208 
	C828.321716,631.180481 839.790771,602.027222 845.425598,570.977722 
	C848.281189,555.242554 850.027893,539.187134 850.696777,523.210388 
	C851.275574,509.386688 850.064392,495.430023 848.822998,481.605896 
	C847.769531,469.874268 846.044739,458.146942 843.719788,446.598328 
	C840.040710,428.323425 833.572937,410.918335 825.438171,393.690186 
	C815.314697,397.641724 805.400513,401.459839 795.527283,405.381287 
	C787.165894,408.702271 786.995300,409.196228 790.310974,417.645599 
	C790.483032,418.084229 790.967773,418.408112 791.110962,418.849030 
	C794.476440,429.216614 798.809143,439.395386 800.919556,450.015137 
	C803.900879,465.016907 805.370911,480.329224 807.239746,495.539185 
	C809.496948,513.910156 808.224060,532.279175 805.796021,550.496094 
	C803.557983,567.287231 799.136414,583.597046 793.237671,599.566711 
	C781.904907,630.248108 765.446106,657.765015 743.573059,681.993591 
	C729.250427,697.858704 713.287292,711.994385 694.739014,722.734497 
	C681.446106,730.431519 667.689697,737.386108 653.826660,744.016663 
	C646.582092,747.481812 638.661316,749.533081 630.431580,752.049316 
	C629.949341,752.348145 629.467041,752.646973 628.184814,753.068054 
	C625.140564,753.798157 622.096375,754.528259 618.385620,755.079468 
	C617.598389,755.416748 616.811218,755.754089 615.222412,756.102783 
	C613.169983,756.515686 611.117493,756.928589 608.289856,757.159485 
	C605.863953,757.787903 603.437988,758.416321 600.187378,759.107117 
	C598.815491,759.202881 597.443665,759.298645 595.279175,759.174438 
	C592.189697,759.796265 589.100220,760.418091 585.158081,761.057800 
	C583.456238,761.125854 581.754395,761.193970 579.326843,761.057556 
	C578.218628,761.374573 577.110474,761.691589 575.096130,762.071106 
	C572.072815,762.141052 569.049438,762.210999 565.503540,762.086792 
	C565.329041,762.150635 565.154480,762.214478 564.082153,762.155518 
	C561.063599,762.190002 558.044983,762.224548 554.499817,762.086243 
	C554.326538,762.150330 554.153320,762.214417 553.090759,762.141968 
	C550.388489,762.119019 547.686218,762.096130 544.514832,761.431274 
	C542.658203,761.376343 540.801636,761.321472 538.130798,761.113708 
	C536.750122,761.094482 535.369385,761.075317 533.447998,760.468933 
	C530.273804,760.103455 527.099609,759.737976 523.152588,759.207153 
M475.397766,547.907959 
	C481.962463,561.072327 489.670288,573.249634 501.257416,582.848572 
	C512.516418,592.175781 524.802002,599.390991 539.164856,601.741150 
	C548.558716,603.278259 558.312744,602.526123 567.892883,603.035706 
	C579.849121,603.671631 590.797668,599.993530 601.082703,594.681274 
	C619.405029,585.217896 633.469543,570.932007 642.552002,552.552002 
	C651.263855,534.921997 652.861816,515.684265 649.728394,496.463959 
	C645.591980,471.090912 631.368652,451.420502 610.447754,437.485443 
	C591.967407,425.175995 570.900818,420.789490 548.503113,424.019745 
	C521.681152,427.888092 500.169128,440.316742 484.865112,462.835052 
	C475.072571,477.243774 469.437561,492.870209 469.816589,510.755646 
	C470.080780,523.220825 471.207520,535.342102 475.397766,547.907959 
M728.233459,413.324036 
	C729.164673,422.788177 730.280884,432.238495 730.988708,441.719299 
	C732.464905,461.490326 733.719727,481.277832 735.076416,501.057831 
	C735.785095,511.390747 736.450012,521.727417 737.267639,532.051880 
	C737.654663,536.938538 738.553589,541.787537 738.871033,546.676208 
	C739.575806,557.528992 740.861450,567.960632 729.911682,576.062805 
	C716.968384,585.640015 705.335876,596.985596 693.102600,607.526978 
	C686.477112,613.236206 679.783936,618.866943 672.888062,624.731506 
	C670.914124,620.396301 668.763062,619.689087 665.649292,622.858582 
	C663.221008,625.330261 660.395874,627.406738 657.827148,629.746643 
	C642.848755,643.391052 627.918640,657.088562 612.904663,670.693665 
	C610.647705,672.738831 610.732056,674.139221 612.785034,676.394409 
	C619.310913,683.562988 625.383789,691.148315 631.994141,698.234619 
	C639.566467,706.352051 639.590393,706.038147 647.635071,698.617676 
	C662.608276,684.806458 677.742004,671.168640 692.870483,657.526794 
	C696.199646,654.524780 699.300293,651.752991 693.106628,647.865784 
	C694.467224,647.276001 695.276062,647.136536 695.790894,646.671509 
	C709.297974,634.470093 722.715088,622.168518 736.275757,610.027161 
	C746.799622,600.604736 757.515808,591.397278 768.080200,582.019592 
	C768.956726,581.241577 769.770569,579.921509 769.845520,578.801880 
	C770.056152,575.653564 770.033203,572.466248 769.805237,569.315857 
	C768.546936,551.927307 767.178101,534.546814 765.891846,517.160217 
	C765.151672,507.154572 764.549988,497.138611 763.789612,487.134613 
	C762.539856,470.693542 761.294006,454.251373 759.883240,437.823669 
	C759.137817,429.143250 757.797119,420.510040 757.187317,411.823059 
	C756.635620,403.964294 755.854004,396.197113 759.319214,388.413086 
	C766.495972,372.291382 773.069336,355.893402 779.549927,339.474487 
	C781.272461,335.110291 783.217590,335.094727 786.917419,336.827087 
	C792.874695,339.616364 799.069397,341.898529 805.252502,344.431305 
	C811.300293,331.512543 817.118408,319.084381 823.245178,305.996918 
	C817.546631,303.304993 811.979980,300.702393 806.437378,298.049591 
	C800.752075,295.328461 800.772400,295.311859 803.668030,289.398712 
	C806.900330,282.798218 810.233826,276.243134 813.279663,269.557281 
	C814.727417,266.379364 815.974915,264.558350 819.855347,266.754761 
	C822.395020,268.192322 825.547913,268.546417 828.258850,269.336975 
	C836.181458,252.726318 843.706970,236.791321 851.374023,220.924759 
	C857.157898,208.955322 855.769714,211.098969 846.122986,206.705994 
	C845.383972,206.369461 844.688232,205.937607 843.948730,205.602341 
	C832.969116,200.624512 821.998291,195.627182 810.995605,190.700806 
	C807.459961,189.117767 804.678467,189.630005 803.197937,193.750565 
	C802.168335,196.616074 800.884399,199.397873 799.592102,202.160004 
	C793.764404,214.615707 787.856323,227.033875 782.052795,239.500778 
	C778.989685,246.080856 779.101807,246.047943 785.207947,249.972244 
	C787.166138,251.230728 789.102417,252.176147 787.223328,255.678284 
	C782.710083,264.090179 779.085083,272.975433 774.839172,281.539490 
	C774.444214,282.336151 771.966003,282.805237 770.818298,282.399384 
	C766.245789,280.782379 761.779602,278.842407 757.346619,276.859680 
	C753.628357,275.196594 750.929260,275.436615 749.145569,279.691681 
	C744.473206,290.837677 739.598389,301.898804 734.650757,313.349091 
	C741.818420,317.047485 748.637634,320.566071 755.439148,324.075562 
	C747.270264,343.303497 739.291260,361.744141 731.632629,380.316895 
	C729.306396,385.958191 725.454224,391.193573 726.968140,398.099884 
	C727.983521,402.732117 727.827332,407.621124 728.233459,413.324036 
M268.048187,252.579010 
	C262.559784,261.849152 259.888336,271.766724 259.985046,282.642609 
	C260.223541,309.456665 260.044922,336.274200 260.155212,363.089844 
	C260.171387,367.026550 260.849121,370.960510 261.220764,374.895752 
	C292.285492,313.750702 336.984619,265.651550 395.276306,230.020813 
	C383.014954,229.030533 371.344696,228.255783 359.664795,228.062271 
	C345.214417,227.822861 330.752319,227.886505 316.303009,228.189453 
	C310.586945,228.309311 304.667053,228.655396 299.232300,230.242157 
	C286.626617,233.922607 275.319397,239.898315 268.048187,252.579010 
M859.986938,739.492004 
	C859.989502,716.682495 860.059570,693.872681 859.935608,671.063843 
	C859.911926,666.695618 859.124023,662.331482 858.688660,657.965393 
	C827.563416,714.371338 787.101318,761.436890 732.347046,795.905151 
	C733.488464,796.593140 733.738892,796.876221 733.989685,796.876526 
	C760.461182,796.908325 786.936584,797.180664 813.401794,796.779419 
	C821.921082,796.650269 830.041077,793.566040 836.972595,788.327820 
	C852.813477,776.356628 861.021790,760.622192 859.986938,739.492004 
M259.191071,724.499512 
	C259.459259,731.926575 259.921997,739.352722 259.954987,746.780823 
	C260.022797,762.064758 266.097229,774.553284 277.309326,784.621033 
	C284.993988,791.521362 293.914764,796.627747 304.362640,796.800049 
	C329.518280,797.215027 354.685516,796.936584 379.847961,796.885803 
	C380.772644,796.883911 381.696259,796.336914 383.832489,795.659668 
	C330.054535,759.794495 290.062286,713.162781 261.027069,656.823303 
	C260.415802,657.058899 259.804565,657.294434 259.193329,657.529968 
	C259.193329,679.519897 259.193329,701.509766 259.191071,724.499512 
z"/>
<path fill="#FCFCFC" opacity="1.000000" stroke="none" 
	d="
M631.045898,752.222900 
	C638.661316,749.533081 646.582092,747.481812 653.826660,744.016663 
	C667.689697,737.386108 681.446106,730.431519 694.739014,722.734497 
	C713.287292,711.994385 729.250427,697.858704 743.573059,681.993591 
	C765.446106,657.765015 781.904907,630.248108 793.237671,599.566711 
	C799.136414,583.597046 803.557983,567.287231 805.796021,550.496094 
	C808.224060,532.279175 809.496948,513.910156 807.239746,495.539185 
	C805.370911,480.329224 803.900879,465.016907 800.919556,450.015137 
	C798.809143,439.395386 794.476440,429.216614 791.110962,418.849030 
	C790.967773,418.408112 790.483032,418.084229 790.310974,417.645599 
	C786.995300,409.196228 787.165894,408.702271 795.527283,405.381287 
	C805.400513,401.459839 815.314697,397.641724 825.438171,393.690186 
	C833.572937,410.918335 840.040710,428.323425 843.719788,446.598328 
	C846.044739,458.146942 847.769531,469.874268 848.822998,481.605896 
	C850.064392,495.430023 851.275574,509.386688 850.696777,523.210388 
	C850.027893,539.187134 848.281189,555.242554 845.425598,570.977722 
	C839.790771,602.027222 828.321716,631.180481 813.440430,658.926208 
	C805.839417,673.098022 797.392456,686.855225 786.481689,698.799683 
	C774.899658,711.479065 763.577698,724.501831 750.994934,736.133484 
	C736.595642,749.444336 720.501953,760.638794 703.111450,770.083069 
	C678.750366,783.312988 653.020081,792.662048 626.203613,798.988708 
	C613.832153,801.907471 601.093506,803.691345 588.417419,804.782166 
	C575.071594,805.930542 561.560791,806.443420 548.196716,805.764954 
	C532.324463,804.959229 516.343933,803.574219 500.759033,800.608154 
	C486.020447,797.803223 471.510406,793.268555 457.299683,788.341492 
	C435.435577,780.760742 415.251282,769.658447 395.747284,757.173279 
	C374.989899,743.885742 357.152618,727.422913 341.439240,708.669922 
	C330.951904,696.153809 320.547577,683.408386 311.680145,669.744202 
	C304.322266,658.406006 298.933899,645.727295 293.258545,633.373474 
	C283.199341,611.476807 277.463837,588.225037 273.165253,564.628052 
	C269.654877,545.358093 269.983215,525.840454 269.964386,506.333435 
	C269.942688,483.836914 272.243683,461.584808 278.243866,439.993195 
	C285.541016,413.734619 295.921051,388.621399 309.785431,365.000885 
	C323.790253,341.140991 341.294098,320.196869 361.512939,301.462524 
	C392.437561,272.808319 427.736237,251.616531 468.000793,238.643280 
	C486.747650,232.603073 505.696930,227.668076 525.313232,226.222336 
	C542.973633,224.920746 560.745239,223.809143 578.419373,224.312592 
	C606.886902,225.123489 634.429321,231.758301 661.238647,241.175781 
	C670.308105,244.361649 679.039368,248.517487 687.896484,252.297272 
	C691.651428,253.899734 689.990723,257.164948 689.622070,259.656372 
	C689.100464,263.181763 687.532532,266.550354 686.989197,270.074982 
	C685.535217,279.508453 684.388672,288.989319 683.040710,299.042389 
	C681.338562,298.395538 679.094971,297.809906 677.107300,296.746124 
	C658.016479,286.528931 638.002869,278.642792 617.025146,273.348450 
	C592.259033,267.098053 566.987976,266.116058 541.688477,268.011810 
	C506.146484,270.674988 472.709229,281.155151 441.435150,298.080231 
	C416.920715,311.347046 394.412079,327.509430 375.836853,348.547760 
	C357.742493,369.041504 341.888397,391.069397 331.628265,416.670135 
	C323.942169,435.848145 317.884552,455.418121 314.669678,475.971954 
	C311.985474,493.132904 310.990387,510.316772 312.118164,527.474976 
	C314.602966,565.279297 324.143341,601.248840 342.741302,634.549805 
	C355.148895,656.766541 370.341614,676.896545 388.812927,694.347229 
	C410.600311,714.930786 435.128204,731.274536 463.277191,742.352356 
	C477.645142,748.006714 492.079712,752.913696 507.575256,756.554688 
	C509.433533,760.474121 511.769165,758.947449 513.990845,758.041382 
	C514.429565,758.059814 514.868347,758.078308 515.705933,758.497681 
	C517.411560,758.899170 518.718445,758.899780 520.025269,758.900452 
	C521.067688,759.002686 522.110168,759.104919 523.567749,759.671875 
	C527.032349,763.553467 530.541504,761.967590 533.988708,761.056152 
	C535.369385,761.075317 536.750122,761.094482 538.627686,761.533630 
	C541.077698,761.993408 543.030823,762.033264 544.983948,762.073181 
	C547.686218,762.096130 550.388489,762.119019 553.619690,762.383423 
	C554.441223,762.502869 554.733826,762.380981 555.026428,762.259033 
	C558.044983,762.224548 561.063599,762.190002 564.613953,762.389648 
	C565.439209,762.509521 565.732666,762.395203 566.026123,762.280884 
	C569.049438,762.210999 572.072815,762.141052 575.751221,762.305176 
	C577.621704,762.113586 578.837097,761.687866 580.052551,761.262085 
	C581.754395,761.193970 583.456238,761.125854 585.865112,761.316406 
	C589.954590,761.788818 593.628357,763.271790 596.071777,759.394409 
	C597.443665,759.298645 598.815491,759.202881 600.835144,759.346802 
	C604.010315,758.838196 606.537659,758.089844 609.065063,757.341431 
	C611.117493,756.928589 613.169983,756.515686 615.807373,756.339111 
	C617.278870,756.136475 618.165527,755.697388 619.052124,755.258362 
	C622.096375,754.528259 625.140564,753.798157 628.736328,753.231201 
	C629.873840,753.003845 630.459900,752.613403 631.045898,752.222900 
z"/>
<path fill="#FEFEFE" opacity="1.000000" stroke="none" 
	d="
M475.236084,547.545654 
	C471.207520,535.342102 470.080780,523.220825 469.816589,510.755646 
	C469.437561,492.870209 475.072571,477.243774 484.865112,462.835052 
	C500.169128,440.316742 521.681152,427.888092 548.503113,424.019745 
	C570.900818,420.789490 591.967407,425.175995 610.447754,437.485443 
	C631.368652,451.420502 645.591980,471.090912 649.728394,496.463959 
	C652.861816,515.684265 651.263855,534.921997 642.552002,552.552002 
	C633.469543,570.932007 619.405029,585.217896 601.082703,594.681274 
	C590.797668,599.993530 579.849121,603.671631 567.892883,603.035706 
	C558.312744,602.526123 548.558716,603.278259 539.164856,601.741150 
	C524.802002,599.390991 512.516418,592.175781 501.257416,582.848572 
	C489.670288,573.249634 481.962463,561.072327 475.236084,547.545654 
M544.403748,508.938690 
	C540.702271,520.702332 551.543030,532.067505 561.160461,530.285400 
	C568.773499,528.874756 574.445557,522.169983 574.530090,514.657837 
	C574.622192,506.466248 569.336914,499.426178 561.875488,497.801666 
	C555.075134,496.321014 548.126038,500.520752 544.403748,508.938690 
z"/>
<path fill="#FBFBFB" opacity="1.000000" stroke="none" 
	d="
M728.214355,412.859619 
	C727.827332,407.621124 727.983521,402.732117 726.968140,398.099884 
	C725.454224,391.193573 729.306396,385.958191 731.632629,380.316895 
	C739.291260,361.744141 747.270264,343.303497 755.439148,324.075562 
	C748.637634,320.566071 741.818420,317.047485 734.650757,313.349091 
	C739.598389,301.898804 744.473206,290.837677 749.145569,279.691681 
	C750.929260,275.436615 753.628357,275.196594 757.346619,276.859680 
	C761.779602,278.842407 766.245789,280.782379 770.818298,282.399384 
	C771.966003,282.805237 774.444214,282.336151 774.839172,281.539490 
	C779.085083,272.975433 782.710083,264.090179 787.223328,255.678284 
	C789.102417,252.176147 787.166138,251.230728 785.207947,249.972244 
	C779.101807,246.047943 778.989685,246.080856 782.052795,239.500778 
	C787.856323,227.033875 793.764404,214.615707 799.592102,202.160004 
	C800.884399,199.397873 802.168335,196.616074 803.197937,193.750565 
	C804.678467,189.630005 807.459961,189.117767 810.995605,190.700806 
	C821.998291,195.627182 832.969116,200.624512 843.948730,205.602341 
	C844.688232,205.937607 845.383972,206.369461 846.122986,206.705994 
	C855.769714,211.098969 857.157898,208.955322 851.374023,220.924759 
	C843.706970,236.791321 836.181458,252.726318 828.258850,269.336975 
	C825.547913,268.546417 822.395020,268.192322 819.855347,266.754761 
	C815.974915,264.558350 814.727417,266.379364 813.279663,269.557281 
	C810.233826,276.243134 806.900330,282.798218 803.668030,289.398712 
	C800.772400,295.311859 800.752075,295.328461 806.437378,298.049591 
	C811.979980,300.702393 817.546631,303.304993 823.245178,305.996918 
	C817.118408,319.084381 811.300293,331.512543 805.252502,344.431305 
	C799.069397,341.898529 792.874695,339.616364 786.917419,336.827087 
	C783.217590,335.094727 781.272461,335.110291 779.549927,339.474487 
	C773.069336,355.893402 766.495972,372.291382 759.319214,388.413086 
	C755.854004,396.197113 756.635620,403.964294 757.187317,411.823059 
	C757.797119,420.510040 759.137817,429.143250 759.883240,437.823669 
	C761.294006,454.251373 762.539856,470.693542 763.789612,487.134613 
	C764.549988,497.138611 765.151672,507.154572 765.891846,517.160217 
	C767.178101,534.546814 768.546936,551.927307 769.805237,569.315857 
	C770.033203,572.466248 770.056152,575.653564 769.845520,578.801880 
	C769.770569,579.921509 768.956726,581.241577 768.080200,582.019592 
	C757.515808,591.397278 746.799622,600.604736 736.275757,610.027161 
	C722.715088,622.168518 709.297974,634.470093 695.790894,646.671509 
	C695.276062,647.136536 694.467224,647.276001 693.106628,647.865784 
	C699.300293,651.752991 696.199646,654.524780 692.870483,657.526794 
	C677.742004,671.168640 662.608276,684.806458 647.635071,698.617676 
	C639.590393,706.038147 639.566467,706.352051 631.994141,698.234619 
	C625.383789,691.148315 619.310913,683.562988 612.785034,676.394409 
	C610.732056,674.139221 610.647705,672.738831 612.904663,670.693665 
	C627.918640,657.088562 642.848755,643.391052 657.827148,629.746643 
	C660.395874,627.406738 663.221008,625.330261 665.649292,622.858582 
	C668.763062,619.689087 670.914124,620.396301 672.888062,624.731506 
	C679.783936,618.866943 686.477112,613.236206 693.102600,607.526978 
	C705.335876,596.985596 716.968384,585.640015 729.911682,576.062805 
	C740.861450,567.960632 739.575806,557.528992 738.871033,546.676208 
	C738.553589,541.787537 737.654663,536.938538 737.267639,532.051880 
	C736.450012,521.727417 735.785095,511.390747 735.076416,501.057831 
	C733.719727,481.277832 732.464905,461.490326 730.988708,441.719299 
	C730.280884,432.238495 729.164673,422.788177 728.214355,412.859619 
z"/>
<path fill="#FCFCFC" opacity="1.000000" stroke="none" 
	d="
M268.314362,252.312027 
	C275.319397,239.898315 286.626617,233.922607 299.232300,230.242157 
	C304.667053,228.655396 310.586945,228.309311 316.303009,228.189453 
	C330.752319,227.886505 345.214417,227.822861 359.664795,228.062271 
	C371.344696,228.255783 383.014954,229.030533 395.276306,230.020813 
	C336.984619,265.651550 292.285492,313.750702 261.220764,374.895752 
	C260.849121,370.960510 260.171387,367.026550 260.155212,363.089844 
	C260.044922,336.274200 260.223541,309.456665 259.985046,282.642609 
	C259.888336,271.766724 262.559784,261.849152 268.314362,252.312027 
z"/>
<path fill="#FCFCFC" opacity="1.000000" stroke="none" 
	d="
M859.986694,739.989746 
	C861.021790,760.622192 852.813477,776.356628 836.972595,788.327820 
	C830.041077,793.566040 821.921082,796.650269 813.401794,796.779419 
	C786.936584,797.180664 760.461182,796.908325 733.989685,796.876526 
	C733.738892,796.876221 733.488464,796.593140 732.347046,795.905151 
	C787.101318,761.436890 827.563416,714.371338 858.688660,657.965393 
	C859.124023,662.331482 859.911926,666.695618 859.935608,671.063843 
	C860.059570,693.872681 859.989502,716.682495 859.986694,739.989746 
z"/>
<path fill="#FBFBFB" opacity="1.000000" stroke="none" 
	d="
M259.192200,723.999573 
	C259.193329,701.509766 259.193329,679.519897 259.193329,657.529968 
	C259.804565,657.294434 260.415802,657.058899 261.027069,656.823303 
	C290.062286,713.162781 330.054535,759.794495 383.832489,795.659668 
	C381.696259,796.336914 380.772644,796.883911 379.847961,796.885803 
	C354.685516,796.936584 329.518280,797.215027 304.362640,796.800049 
	C293.914764,796.627747 284.993988,791.521362 277.309326,784.621033 
	C266.097229,774.553284 260.022797,762.064758 259.954987,746.780823 
	C259.921997,739.352722 259.459259,731.926575 259.192200,723.999573 
z"/>
<path fill="#D1D1D3" opacity="1.000000" stroke="none" 
	d="
M533.718384,760.762573 
	C530.541504,761.967590 527.032349,763.553467 523.954163,759.754517 
	C527.099609,759.737976 530.273804,760.103455 533.718384,760.762573 
z"/>
<path fill="#D1D1D3" opacity="1.000000" stroke="none" 
	d="
M595.675476,759.284424 
	C593.628357,763.271790 589.954590,761.788818 586.291382,761.307434 
	C589.100220,760.418091 592.189697,759.796265 595.675476,759.284424 
z"/>
<path fill="#D1D1D3" opacity="1.000000" stroke="none" 
	d="
M608.677490,757.250488 
	C606.537659,758.089844 604.010315,758.838196 601.247498,759.315674 
	C603.437988,758.416321 605.863953,757.787903 608.677490,757.250488 
z"/>
<path fill="#D1D1D3" opacity="1.000000" stroke="none" 
	d="
M513.768372,757.747009 
	C511.769165,758.947449 509.433533,760.474121 507.990601,756.576660 
	C509.818665,756.622437 511.682281,757.037537 513.768372,757.747009 
z"/>
<path fill="#D1D1D3" opacity="1.000000" stroke="none" 
	d="
M544.749390,761.752197 
	C543.030823,762.033264 541.077698,761.993408 539.034790,761.610107 
	C540.801636,761.321472 542.658203,761.376343 544.749390,761.752197 
z"/>
<path fill="#D1D1D3" opacity="1.000000" stroke="none" 
	d="
M579.689697,761.159790 
	C578.837097,761.687866 577.621704,762.113586 576.204224,762.273926 
	C577.110474,761.691589 578.218628,761.374573 579.689697,761.159790 
z"/>
<path fill="#D1D1D3" opacity="1.000000" stroke="none" 
	d="
M519.897949,758.536377 
	C518.718445,758.899780 517.411560,758.899170 516.027344,758.569336 
	C517.223511,758.217529 518.497131,758.194885 519.897949,758.536377 
z"/>
<path fill="#D1D1D3" opacity="1.000000" stroke="none" 
	d="
M618.718872,755.168945 
	C618.165527,755.697388 617.278870,756.136475 616.208130,756.333496 
	C616.811218,755.754089 617.598389,755.416748 618.718872,755.168945 
z"/>
<path fill="#D1D1D3" opacity="1.000000" stroke="none" 
	d="
M630.738770,752.136108 
	C630.459900,752.613403 629.873840,753.003845 629.136292,753.170044 
	C629.467041,752.646973 629.949341,752.348145 630.738770,752.136108 
z"/>
<path fill="#D1D1D3" opacity="1.000000" stroke="none" 
	d="
M554.763123,762.172607 
	C554.733826,762.380981 554.441223,762.502869 554.064331,762.451660 
	C554.153320,762.214417 554.326538,762.150330 554.763123,762.172607 
z"/>
<path fill="#D1D1D3" opacity="1.000000" stroke="none" 
	d="
M565.764832,762.183838 
	C565.732666,762.395203 565.439209,762.509521 565.062866,762.451050 
	C565.154480,762.214478 565.329041,762.150635 565.764832,762.183838 
z"/>
<path fill="#040404" opacity="1.000000" stroke="none" 
	d="
M544.522095,508.578247 
	C548.126038,500.520752 555.075134,496.321014 561.875488,497.801666 
	C569.336914,499.426178 574.622192,506.466248 574.530090,514.657837 
	C574.445557,522.169983 568.773499,528.874756 561.160461,530.285400 
	C551.543030,532.067505 540.702271,520.702332 544.522095,508.578247 
z"/>
</svg>